<?xml version="1.0" encoding="UTF-8"?>
<svg version="1.1" xmlns="http://www.w3.org/2000/svg" width="1128" height="1150">
<path d="M0 0 C372.24 0 744.48 0 1128 0 C1128 379.5 1128 759 1128 1150 C755.76 1150 383.52 1150 0 1150 C0 770.5 0 391 0 0 Z " fill="#FEFEFE" transform="translate(0,0)"/>
<path d="M0 0 C1.08958008 0.17160645 2.17916016 0.34321289 3.30175781 0.52001953 C47.77594089 7.61534472 89.61179937 23.93484865 127.9375 47.5 C128.75484619 47.99218018 129.57219238 48.48436035 130.41430664 48.99145508 C131.15285889 49.4583374 131.89141113 49.92521973 132.65234375 50.40625 C133.30195068 50.81166016 133.95155762 51.21707031 134.62084961 51.63476562 C135.07596924 52.08529297 135.53108887 52.53582031 136 53 C136 57.38780521 135.44617293 58.0166162 132.5096283 60.98805237 C131.73819237 61.73791664 131.73819237 61.73791664 130.95117188 62.50292969 C130.1465023 63.30847542 130.1465023 63.30847542 129.32557678 64.1302948 C127.54928422 65.90379965 125.75924193 67.66271612 123.96875 69.421875 C122.73476725 70.64839784 121.50166443 71.87580655 120.26940918 73.10406494 C117.02305061 76.33514768 113.76485959 79.55403947 110.50408936 82.77056885 C107.17911378 86.05463411 103.86542654 89.35004559 100.55078125 92.64453125 C94.04487483 99.10753238 87.52641643 105.5577154 81 112 C77.50989342 110.86250163 74.30398072 109.77574862 71.14453125 107.8984375 C70.44972656 107.49463867 69.75492188 107.09083984 69.0390625 106.67480469 C68.30429687 106.24586914 67.56953125 105.81693359 66.8125 105.375 C57.51025052 100.09172074 47.98442483 95.82112126 38 92 C37.29504395 91.72704102 36.59008789 91.45408203 35.86376953 91.17285156 C21.67629277 85.78047726 6.87465068 82.83067261 -8 80 C-8.92200195 79.81775879 -9.84400391 79.63551758 -10.79394531 79.44775391 C-70.08585862 68.07158497 -135.32464889 84.14970674 -185.19140625 117.109375 C-187.48833276 118.70668133 -189.75941538 120.32494756 -192 122 C-187.51370587 127.37340348 -182.77105614 132.37071672 -177.81546021 137.31152344 C-177.00743482 138.12110882 -176.19940943 138.9306942 -175.36689842 139.76481247 C-172.67030764 142.46537821 -169.97017302 145.16237178 -167.27001953 147.859375 C-165.3309181 149.79928214 -163.39256176 151.73993317 -161.4541626 153.68054199 C-156.74199089 158.3971512 -152.02713074 163.111064 -147.31128873 167.82400322 C-143.47670952 171.65632019 -139.64311217 175.48961678 -135.81020737 179.3236084 C-134.99060916 180.14343645 -134.99060916 180.14343645 -134.15445342 180.97982669 C-133.04430024 182.0902996 -131.93414931 183.20077475 -130.82400058 184.31125212 C-120.42317802 194.71492362 -110.01929726 205.11553252 -99.61436187 215.51509047 C-90.696738 224.42824808 -81.78173742 233.34402247 -72.86865234 242.26171875 C-62.50678588 252.62894347 -52.14329039 262.9945353 -41.77721107 273.35754776 C-40.67061335 274.46382695 -39.5640177 275.57010822 -38.45742416 276.6763916 C-37.91302595 277.22063554 -37.36862774 277.76487947 -36.80773262 278.32561564 C-32.98131322 282.15117355 -29.15605146 285.97788663 -25.33124161 289.80505371 C-20.66588344 294.47322403 -15.99873231 299.139593 -11.32931317 303.8037014 C-8.94936284 306.18103361 -6.57047794 308.55940575 -4.19322586 310.93943787 C-1.61062991 313.52477492 0.97504053 316.10699842 3.56149292 318.68847656 C4.30450523 319.4337196 5.04751755 320.17896263 5.81304538 320.94678879 C9.75713059 324.87622151 13.80232888 328.60795173 18.01648808 332.24474776 C21.51587604 335.34143122 24.80162484 338.65004493 28.10597229 341.95207214 C28.8812211 342.7229387 29.65646991 343.49380525 30.4552111 344.2880314 C33.03312601 346.8526698 35.60752649 349.42080555 38.18188477 351.98901367 C40.03670528 353.83592529 41.89170568 355.68265626 43.74687195 357.52922058 C49.2925048 363.05047194 54.83331707 368.57654813 60.37323967 374.10352823 C61.93817846 375.66474863 63.50324413 377.22584174 65.06835437 378.78689027 C74.79666241 388.4899866 84.52338626 398.19466793 94.24533176 407.90413952 C96.49043926 410.14631766 98.73556295 412.38847959 100.98071289 414.63061523 C101.53868677 415.18784306 102.09666064 415.74507088 102.67154282 416.3191844 C111.73602416 425.37097753 120.81075328 434.41242553 129.88965357 443.44975408 C139.21616398 452.73390792 148.53328243 462.02740364 157.84125561 471.3301428 C163.06570197 476.55117106 168.29426518 481.76792939 173.53341866 486.97420311 C178.45228697 491.8622497 183.35842418 496.7627555 188.25598335 501.67215157 C190.05970531 503.47609558 191.86775096 505.27572777 193.68029404 507.07080841 C196.14413246 509.51218523 198.59226449 511.96827698 201.03688049 514.42887878 C202.13031174 515.5014869 202.13031174 515.5014869 203.2458325 516.59576386 C203.89378623 517.25428953 204.54173996 517.9128152 205.20932865 518.5912962 C205.77647117 519.15708218 206.34361368 519.72286817 206.92794234 520.30579919 C208 522 208 522 207.80185837 524.05581743 C206.58149327 527.01470974 204.56470287 528.93460421 202.375 531.25 C201.53710938 532.14203125 200.69921875 533.0340625 199.8359375 533.953125 C199.38387939 534.43273682 198.93182129 534.91234863 198.46606445 535.40649414 C196.8345727 537.17980749 195.26398578 538.99849775 193.69140625 540.82421875 C189.83053997 545.25749311 185.72934763 549.4181556 181.5625 553.5625 C180.85029297 554.27857422 180.13808594 554.99464844 179.40429688 555.73242188 C175.32556216 559.80374744 171.1463157 563.69107913 166.7800293 567.4519043 C164.49410619 569.43997705 162.31800949 571.5353647 160.125 573.625 C124.80610636 605.80879074 77.76215987 627.04276349 32 639 C31.22317871 639.20318848 30.44635742 639.40637695 29.64599609 639.61572266 C8.62015978 644.97616592 -13.54917443 648.10456408 -35.24609375 648.203125 C-36.28683044 648.21022995 -37.32756714 648.2173349 -38.39984131 648.22465515 C-92.79966044 648.51150566 -143.03852313 640.57296039 -192 616 C-192.99773437 615.50322754 -193.99546875 615.00645508 -195.0234375 614.49462891 C-206.77196996 608.61102065 -218.15841463 602.44067211 -229 595 C-223.50280742 588.30470134 -217.39046848 582.26303509 -211.2578125 576.16015625 C-210.12273594 575.02694801 -208.98788237 573.89351638 -207.85324097 572.75987244 C-204.88649256 569.79691665 -201.91675198 566.83697807 -198.9463501 563.87768555 C-195.9077114 560.84933144 -192.87195091 557.81809501 -189.8359375 554.78710938 C-183.8934174 548.85526911 -177.947729 542.92661739 -172 537 C-167.25184952 538.52535587 -162.91980597 540.45986952 -158.5 542.75 C-137.5989361 553.33575583 -115.9891987 560.5289451 -93 565 C-92.20271484 565.16516113 -91.40542969 565.33032227 -90.58398438 565.50048828 C-64.04842702 570.83296625 -32.46191956 570.60261114 -6 565 C-4.29577881 564.65340332 -4.29577881 564.65340332 -2.55712891 564.29980469 C29.92940436 557.58544255 70.00967695 546.33691264 94 522 C83.71053892 511.68711539 73.41816792 501.37714248 63.12238312 491.07057095 C58.34128777 486.28433266 53.56112726 481.49716784 48.78320312 476.70776367 C44.1689628 472.08244196 39.55206954 467.45977856 34.93357849 462.83870125 C33.17533537 461.07861591 31.41797004 459.31765324 29.66151428 457.55578423 C27.1940058 455.08097661 24.72334436 452.60935715 22.25195312 450.13842773 C21.17300781 449.05408951 21.17300781 449.05408951 20.07226562 447.94784546 C19.04607117 446.923713 19.04607117 446.923713 17.99914551 445.87889099 C17.41657234 445.29539603 16.83399918 444.71190107 16.23377228 444.11072445 C14.37895136 442.35807674 12.49007224 440.70626422 10.55047607 439.05047607 C4.4838799 433.76494071 -1.12765752 428.0069004 -6.8067627 422.31349182 C-8.10039164 421.0202994 -9.39424051 419.72732695 -10.68828917 418.43455452 C-14.22975236 414.89532024 -17.76810186 411.35298748 -21.30593777 407.81012785 C-25.12678636 403.98495188 -28.95053369 400.16267547 -32.77392578 396.34004211 C-39.39324254 389.72124914 -46.01072914 383.10063092 -52.62696838 376.47876167 C-62.19288724 366.90470813 -71.76157347 357.33342435 -81.33093256 347.76280951 C-96.85734473 332.23420991 -112.38152345 316.70337949 -127.90429688 301.17114258 C-142.9812488 286.08500853 -158.05925273 270.99992768 -173.13867188 255.91625977 C-174.06851271 254.98615621 -174.99835354 254.05605265 -175.95637137 253.09776414 C-180.62121931 248.43161114 -185.28608793 243.76547882 -189.95096684 239.09935677 C-228.63718458 200.40277606 -267.31977743 161.7025733 -306 123 C-304.36035876 118.53358535 -302.08077951 115.58232536 -298.8125 112.1875 C-297.81043626 111.12311238 -296.80913333 110.05800798 -295.80859375 108.9921875 C-295.0813208 108.22213379 -295.0813208 108.22213379 -294.33935547 107.43652344 C-292.6322037 105.60552071 -290.99994896 103.71655784 -289.375 101.8125 C-283.83650384 95.44124666 -277.81481099 89.60301057 -271.3984375 84.125 C-269.46319217 82.41038525 -267.59015843 80.66557599 -265.7265625 78.875 C-256.97526949 70.48609637 -247.90625686 62.98680569 -238 56 C-237.39752441 55.57267578 -236.79504883 55.14535156 -236.17431641 54.70507812 C-205.82342391 33.35536938 -171.42152297 16.91324668 -135.48730469 7.64257812 C-133.85773497 7.22158995 -132.23062365 6.79094057 -130.60644531 6.34960938 C-124.44656041 4.67630457 -118.25525607 3.26932477 -112 2 C-110.87223145 1.76861328 -109.74446289 1.53722656 -108.58251953 1.29882812 C-73.42532817 -5.60078821 -35.32737511 -5.89940689 0 0 Z " fill="#231F20" transform="translate(553,88)"/>
<path d="M0 0 C4.06951606 1.52390209 6.6299947 3.20036659 9.8125 6.1875 C12.71369239 8.88991575 15.63137152 11.54823297 18.640625 14.12890625 C23.45785312 18.33018136 27.99036565 22.80428859 32.50854492 27.32324219 C33.92668284 28.73919947 35.35296665 30.14698289 36.77929688 31.5546875 C42.96115254 37.72365535 48.58251155 44.15455638 54 51 C54.929027 52.13442259 55.85967849 53.26751971 56.79296875 54.3984375 C89.43262319 94.97171104 109.8684473 142.41381726 121 193 C121.17756836 193.76892578 121.35513672 194.53785156 121.53808594 195.33007812 C131.38270261 237.96891247 129.26959622 285.8079641 119 328 C118.72607422 329.13163574 118.45214844 330.26327148 118.16992188 331.42919922 C112.32951506 355.29059284 112.32951506 355.29059284 107.75 366.49609375 C106.90500362 369.31714939 107.02321125 370.27504579 108 373 C109.32025745 374.75994153 109.32025745 374.75994153 111.04347229 376.40423584 C111.69273682 377.05762436 112.34200134 377.71101288 113.01094055 378.38420105 C114.08555794 379.44263969 114.08555794 379.44263969 115.18188477 380.52246094 C115.93305573 381.27406998 116.68422668 382.02567902 117.4581604 382.80006409 C119.94553161 385.28534345 122.4433643 387.75982519 124.94140625 390.234375 C126.66698852 391.95436275 128.39191011 393.67501357 130.11619568 395.39630127 C134.65852173 399.92716732 139.20978466 404.44895266 143.76293945 408.96893311 C148.40661417 413.58193211 153.04181883 418.2034244 157.67773438 422.82421875 C166.77686518 431.89116497 175.88517123 440.9488362 185 450 C183.35296864 453.48933577 181.48320216 455.75955899 178.73388672 458.49316406 C177.85312469 459.37377502 176.97236267 460.25438599 176.06491089 461.16168213 C175.10327649 462.11310431 174.1415328 463.06441603 173.1796875 464.015625 C172.19561893 464.99596129 171.21199258 465.97674168 170.22879028 466.95794678 C167.64557286 469.53354467 165.05640488 472.10307857 162.46594238 474.67138672 C159.8213238 477.29551067 157.1823899 479.92533771 154.54296875 482.5546875 C149.36751928 487.7087167 144.18576878 492.85635157 139 498 C132.78248124 492.90961106 127.15752197 487.27481319 121.50383186 481.57899666 C119.75184517 479.81409971 117.99662561 478.05247393 116.24058533 476.29161072 C111.88133546 471.91907972 107.52756492 467.54110617 103.17364502 463.16326904 C99.48618142 459.45596817 95.79660374 455.75079519 92.10427666 452.04833794 C90.38741875 450.32506727 88.67363665 448.59877912 86.9599762 446.87232971 C85.89151841 445.8002342 84.82291704 444.72828176 83.75415039 443.65649414 C82.83372452 442.73083145 81.91329865 441.80516876 80.96498108 440.85145569 C78.78933867 438.71337277 76.52868583 436.70694164 74.21702576 434.71702576 C69.52224386 430.64406142 65.15284788 426.27813193 60.7734375 421.87109375 C59.88779114 420.98398712 59.00214478 420.09688049 58.08966064 419.18289185 C56.178864 417.26830796 54.26899097 415.35285475 52.36065674 413.43582153 C49.33617324 410.39769493 46.30777113 407.36349417 43.27880859 404.32983398 C36.30408181 397.34311903 29.33440231 390.35137627 22.36477661 383.35957336 C15.97139465 376.94595275 9.57692299 370.53342841 3.17837715 364.12495899 C0.17437505 361.11600842 -2.82718009 358.10464534 -5.82681274 355.09133911 C-8.14034571 352.76852368 -10.45716923 350.44899361 -12.7734375 348.12890625 C-14.00184357 346.8927507 -14.00184357 346.8927507 -15.25506592 345.63162231 C-19.41022964 341.47607992 -23.64865735 337.50535926 -28.10151672 333.67165947 C-31.24894639 330.90027314 -34.19480426 327.9362246 -37.15039062 324.96313477 C-38.14700714 323.96673729 -38.14700714 323.96673729 -39.16375732 322.95021057 C-41.33030421 320.7829744 -43.49330062 318.61223229 -45.65625 316.44140625 C-47.16917356 314.926615 -48.68232 313.41204632 -50.19567871 311.89768982 C-54.15651974 307.9330512 -58.11434702 303.96541749 -62.0715332 299.99713135 C-66.11877339 295.93961743 -70.16888565 291.88497254 -74.21875 287.83007812 C-82.14863112 279.88950839 -90.07532821 271.9457684 -98 264 C-94.63920823 260.01497628 -91.24975325 256.12475402 -87.55517578 252.44165039 C-86.73477814 251.62132828 -85.91438049 250.80100616 -85.06912231 249.95582581 C-84.20326508 249.09512985 -83.33740784 248.2344339 -82.4453125 247.34765625 C-81.54376434 246.44752304 -80.64221619 245.54738983 -79.71334839 244.61997986 C-77.33801783 242.24927177 -74.96054595 239.88075485 -72.58197021 237.51330566 C-70.14655283 235.08819272 -67.71403088 232.66017915 -65.28125 230.23242188 C-60.52347231 225.48562872 -55.7628462 220.74170719 -51 216 C-47.79177828 217.41392648 -45.64749941 219.10493631 -43.17816162 221.58132935 C-42.43221741 222.32452423 -41.68627319 223.06771912 -40.91772461 223.83343506 C-40.10924072 224.6491095 -39.30075684 225.46478394 -38.46777344 226.30517578 C-37.60887512 227.16378204 -36.74997681 228.02238831 -35.86505127 228.90701294 C-33.51460664 231.25861144 -31.16868541 233.61455732 -28.82466412 235.97254801 C-26.372552 238.43716991 -23.91476793 240.89612225 -21.45758057 243.35568237 C-16.8071181 248.01235887 -12.16177703 252.67410974 -7.51825547 257.33770645 C-2.23080081 262.64752248 3.06233984 267.9516548 8.35596514 273.25531793 C19.24364811 284.16390116 30.12417051 295.07959806 41 306 C45.75514572 289.85546021 46.5240915 273.29774017 46.375 256.5625 C46.36802094 255.15475311 46.36802094 255.15475311 46.36090088 253.71856689 C46.28107595 239.95797707 45.89115665 226.49979474 43 213 C42.79600586 212.02047363 42.59201172 211.04094727 42.38183594 210.03173828 C33.1556734 166.67414622 14.4431106 127.26804642 -15 94 C-15.77085937 93.11828125 -16.54171875 92.2365625 -17.3359375 91.328125 C-25.87955896 81.67533163 -34.88753047 72.99557351 -45 65 C-46.89613282 63.47954008 -48.79198219 61.95872657 -50.6875 60.4375 C-52.12449468 59.29103301 -53.56179506 58.1449484 -55 57 C-53.42476254 53.14691234 -50.82252556 50.55256086 -47.90771484 47.68066406 C-47.39048355 47.16314072 -46.87325226 46.64561737 -46.34034729 46.1124115 C-44.63524329 44.40869711 -42.92317232 42.71217022 -41.2109375 41.015625 C-40.025087 39.83350593 -38.83967826 38.65094355 -37.6546936 37.46795654 C-34.53882362 34.35971272 -31.41699366 31.25752263 -28.29388428 28.15655518 C-25.10636381 24.98951498 -21.9245168 21.81678613 -18.7421875 18.64453125 C-12.50033024 12.42410597 -6.25216515 6.21006463 0 0 Z " fill="#231F20" transform="translate(704,154)"/>
<path d="M0 0 C3.93467549 1.59247554 6.57577776 4.30662369 9.50292969 7.27587891 C10.03996017 7.81261734 10.57699066 8.34935577 11.1302948 8.90235901 C12.89893859 10.67239283 14.66039824 12.44939857 16.421875 14.2265625 C17.64883466 15.45725344 18.87623749 16.6875027 20.10406494 17.91732788 C23.33067488 21.15156516 26.55123291 24.39176408 29.77056885 27.63323975 C33.05825672 30.94140534 36.35163068 34.24389946 39.64453125 37.546875 C46.10193298 44.02571079 52.55295568 50.51085869 59 57 C58.74896515 57.52483475 58.4979303 58.04966949 58.23928833 58.59040833 C47.11977963 81.8673806 37.87505393 105.0515978 32.6875 130.4375 C32.54022461 131.15615234 32.39294922 131.87480469 32.24121094 132.61523438 C29.48781596 147.09796299 28.6234207 161.47715983 28.6875 176.1875 C28.68899048 177.03962067 28.69048096 177.89174133 28.6920166 178.76968384 C28.73107175 191.22579942 29.22847685 203.38483011 31.56005859 215.65380859 C31.99989565 217.99944352 32.37331951 220.3487042 32.73828125 222.70703125 C34.48096565 233.23099251 37.51514878 243.27339246 40.875 253.375 C41.28564697 254.61056641 41.69629395 255.84613281 42.11938477 257.11914062 C46.1265511 268.85446945 50.8261049 280.28134682 56.625 291.25 C57.03669434 292.03286377 57.44838867 292.81572754 57.87255859 293.62231445 C62.63806937 302.48000633 68.26347192 310.75004466 74 319 C80.57425077 313.59178002 86.53244241 307.60177705 92.53491211 301.57861328 C93.68842433 300.42481859 94.84215758 299.27124483 95.99609375 298.11787415 C99.11145877 295.00279478 102.22374164 291.88465271 105.33546138 288.76593256 C108.59412073 285.50100102 111.85563233 282.23892122 115.11683655 278.97653198 C121.28453275 272.80573384 127.44967645 266.63239211 133.61389691 260.45812213 C140.63491729 253.42590525 147.65879415 246.3965444 154.68290699 239.36741662 C169.12510842 224.91477654 183.56373649 210.45857111 198 196 C200.84940909 197.36755098 202.79090422 198.5768299 204.91040039 200.93383789 C205.719058 201.8199601 205.719058 201.8199601 206.54405212 202.72398376 C207.11861649 203.36292068 207.69318085 204.0018576 208.28515625 204.66015625 C213.30574728 210.14137856 218.41113668 215.50641966 223.68359375 220.74609375 C224.32116608 221.38036285 224.9587384 222.01463196 225.6156311 222.66812134 C227.55424003 224.59329209 229.49540543 226.51584597 231.4375 228.4375 C250.98962639 247.78773596 250.98962639 247.78773596 253 251 C253 255 253 255 251.85865879 256.63813519 C251.31793704 257.17733806 250.77721529 257.71654093 250.22010803 258.27208328 C249.60006362 258.90009189 248.98001921 259.5281005 248.34118557 260.17513967 C247.64859677 260.8560771 246.95600798 261.53701453 246.24243164 262.23858643 C245.51555932 262.96887645 244.788687 263.69916646 244.03978825 264.45158648 C241.58933224 266.90865767 239.12480198 269.35111381 236.66015625 271.79394531 C234.90562519 273.54734869 233.15197325 275.30163214 231.3991394 277.05673218 C227.61704722 280.83973673 223.82889249 284.61650877 220.03512573 288.38779449 C214.5499744 293.84046308 209.07587759 299.30411943 203.60443175 304.77053651 C194.72748986 313.63871989 185.84164864 322.49793047 176.95019531 331.3515625 C168.31205266 339.95299944 159.67811343 348.55861986 151.04980469 357.16992188 C150.51811947 357.70055619 149.98643426 358.23119051 149.43863738 358.77790466 C146.77140398 361.43991797 144.10425314 364.10201397 141.43714333 366.7641511 C119.30421157 388.85560352 97.15668488 410.93236971 75 433 C70.68127572 431.39858401 68.05199312 429.49197034 64.6875 426.3125 C63.36298828 425.06919922 63.36298828 425.06919922 62.01171875 423.80078125 C61.53710205 423.35371826 61.06248535 422.90665527 60.57348633 422.44604492 C58.82914321 420.84298142 57.03886306 419.30195321 55.2421875 417.7578125 C50.4312038 413.56749068 45.93641773 409.08296084 41.4375 404.5625 C40.62603516 403.75490234 39.81457031 402.94730469 38.97851562 402.11523438 C34.11107494 397.23993664 29.45738282 392.25200996 25 387 C24.49380127 386.41114014 23.98760254 385.82228027 23.46606445 385.21557617 C-26.29441405 326.92565478 -51.19213389 251.95714937 -51.1875 176 C-51.18885956 174.5503183 -51.18885956 174.5503183 -51.19024658 173.0713501 C-51.18849201 156.5163067 -50.74070881 140.34327904 -47.8125 124 C-47.59255371 122.75669922 -47.37260742 121.51339844 -47.14599609 120.23242188 C-39.30717882 77.18759203 -23.1966912 37.07955942 0 0 Z " fill="#231F20" transform="translate(229,234)"/>
<path d="M0 0 C1.52170257 0.0230607 3.04355822 0.03875596 4.56542969 0.04296875 C25.04288944 0.14431723 46.11710382 5.51970413 65.44873047 12.03710938 C66.10550781 12.25834473 66.76228516 12.47958008 67.43896484 12.70751953 C77.89456107 16.28430136 87.70547347 20.84338973 97.44873047 26.03710938 C98.11936523 26.3917627 98.79 26.74641602 99.48095703 27.11181641 C122.18580431 39.20402424 144.11624128 56.04561038 160.44873047 76.03710938 C161.41025583 77.16402125 162.37257555 78.29025557 163.33544922 79.41601562 C195.76981723 117.80002785 215.65700053 168.55827123 214.44873047 219.03710938 C209.63790045 215.02499212 205.10200549 210.83115215 200.68725586 206.38916016 C200.05225159 205.75430191 199.41724731 205.11944366 198.76300049 204.46534729 C196.68841342 202.39006988 194.61737974 200.31128537 192.54638672 198.23242188 C191.09929447 196.78346233 189.65197963 195.33472506 188.20445251 193.88619995 C184.4129294 190.09087627 180.62442026 186.29255807 176.83654785 182.49359131 C172.96366157 178.61043778 169.08790895 174.73014742 165.21240234 170.84960938 C157.62171639 163.24822954 150.03421397 155.64368054 142.44873047 148.03710938 C138.31248038 149.66776582 135.54916448 152.66934389 132.48681641 155.77197266 C131.90101807 156.35747894 131.31521973 156.94298523 130.71166992 157.54623413 C128.78070208 159.47859293 126.856911 161.41793454 124.93310547 163.35742188 C123.59404436 164.70021394 122.25454038 166.0425645 120.91461182 167.38449097 C117.39208618 170.91464655 113.87560844 174.45076743 110.36035156 177.98815918 C106.77104496 181.59793789 103.17605791 185.20204952 99.58154297 188.80664062 C92.53169729 195.87792495 85.4882271 202.95552351 78.44873047 210.03710938 C75.03651511 208.4249999 72.83289766 206.64304903 70.18310547 203.93164062 C69.37486328 203.11244141 68.56662109 202.29324219 67.73388672 201.44921875 C66.89728516 200.59134766 66.06068359 199.73347656 65.19873047 198.84960938 C63.55020778 197.16614939 61.89919411 195.48512481 60.24560547 193.80664062 C59.51696289 193.06003174 58.78832031 192.31342285 58.03759766 191.54418945 C55.97523309 189.5469788 53.8877877 187.67076575 51.71398735 185.80038261 C47.86552098 182.44263189 44.21490186 178.93917498 40.61575317 175.31765747 C39.97737829 174.67943145 39.33900341 174.04120542 38.68128383 173.38363922 C36.56638797 171.26805499 34.45507725 169.14893034 32.34375 167.02978516 C30.81896407 165.503078 29.29394879 163.97659989 27.76872253 162.45033264 C24.49726023 159.1757201 21.22735531 155.89956323 17.9586525 152.6221962 C12.79345697 147.4434469 7.6244211 142.26854224 2.45480347 137.09420776 C-8.5085211 126.11980275 -19.46760073 115.14116317 -30.42626953 104.16210938 C-42.2781896 92.28817297 -54.13083618 80.4149672 -65.98834717 68.54661357 C-71.13154659 63.39842131 -76.27229567 58.24779822 -81.41120601 53.09532475 C-84.59897382 49.90012321 -87.78878905 46.70697181 -90.97917747 43.51438713 C-92.46278019 42.02890505 -93.94551461 40.54255522 -95.42733574 39.05529594 C-97.442675 37.0327908 -99.46103035 35.01334532 -101.48019409 32.99465942 C-102.07200844 32.39925012 -102.66382278 31.80384081 -103.2735709 31.1903888 C-106.13818987 28.25229304 -106.13818987 28.25229304 -109.55126953 26.03710938 C-109.55126953 25.37710938 -109.55126953 24.71710938 -109.55126953 24.03710938 C-93.55204649 16.13409031 -77.91597374 9.70978159 -60.45361328 5.89648438 C-57.74882007 5.30083422 -55.07344978 4.67576447 -52.39111328 3.99414062 C-35.26961455 -0.27317086 -17.54876036 -0.27578969 0 0 Z " fill="#FDB018" transform="translate(511.55126953125,189.962890625)"/>
<path d="M0 0 C4.4922126 3.76156452 8.77930237 7.63865912 12.90014648 11.80249023 C13.71633453 12.62086868 13.71633453 12.62086868 14.54901123 13.45578003 C15.71771918 14.62826203 16.88527179 15.80189662 18.05175591 16.97659111 C19.90456349 18.84229648 21.76059408 20.70474265 23.6174469 22.56642151 C28.22711965 27.18938299 32.83131769 31.81778446 37.43566895 36.44604492 C41.3345175 40.36472096 45.23547351 44.28127651 49.13917732 48.19511604 C50.95574768 50.01810512 52.7692468 51.84411058 54.58262634 53.67027283 C59.63860509 58.74844477 64.70984678 63.7408504 70.16639709 68.39347839 C73.67729866 71.46957476 76.93158889 74.80977897 80.21875 78.12109375 C80.96209595 78.86585464 81.70544189 79.61061554 82.47131348 80.37794495 C84.81659301 82.72876745 87.15834836 85.08306431 89.5 87.4375 C91.10132961 89.04385199 92.70288998 90.64997397 94.3046875 92.25585938 C98.20579473 96.16791985 102.1040242 100.08282952 106 104 C101.30697748 107.61666038 96.26857415 109.6190261 90.8125 111.875 C89.73548828 112.32117676 88.65847656 112.76735352 87.54882812 113.22705078 C78.82604107 116.77928762 70.10988041 119.64935589 61 122 C59.67816773 122.35857349 58.35655327 122.71795086 57.03515625 123.078125 C40.64919768 127.45552955 24.84975386 129.48754329 7.88696289 129.33618164 C5.06822985 129.31254804 2.25044835 129.31565732 -0.56835938 129.32226562 C-18.01711878 129.29849179 -34.76306477 127.83451567 -51.6875 123.5 C-52.36234436 123.3300351 -53.03718872 123.16007019 -53.73248291 122.98495483 C-70.70724005 118.6757792 -86.41943912 111.941263 -102 104 C-100.52122394 100.57317121 -98.59673853 98.34962891 -95.96310425 95.72259521 C-95.11893951 94.87568115 -94.27477478 94.02876709 -93.4050293 93.15618896 C-92.477146 92.23549622 -91.5492627 91.31480347 -90.59326172 90.36621094 C-89.60732795 89.38084147 -88.62183467 88.39503107 -87.63674927 87.40881348 C-84.96372691 84.73521735 -82.28458338 82.06783214 -79.60430288 79.40151501 C-76.80335733 76.61307269 -74.00807521 73.81896487 -71.21218872 71.02545166 C-65.91802522 65.73750411 -60.61878415 60.45467545 -55.31770241 55.17366433 C-49.28238886 49.16070616 -43.25275394 43.14206738 -37.22359061 37.1229434 C-24.82203735 24.74229475 -12.41336738 12.36880304 0 0 Z " fill="#FDB018" transform="translate(501,504)"/>
<path d="M0 0 C3.42682879 1.47877606 5.65037109 3.40326147 8.27740479 6.03689575 C9.12431885 6.88106049 9.97123291 7.72522522 10.84381104 8.5949707 C11.76450378 9.522854 12.68519653 10.4507373 13.63378906 11.40673828 C14.61915853 12.39267205 15.60496893 13.37816533 16.59118652 14.36325073 C19.26478265 17.03627309 21.93216786 19.71541662 24.59848499 22.39569712 C27.38692731 25.19664267 30.18103513 27.99192479 32.97454834 30.78781128 C38.26249589 36.08197478 43.54532455 41.38121585 48.82633567 46.68229759 C54.83929384 52.71761114 60.85793262 58.74724606 66.8770566 64.77640939 C79.25770525 77.17796265 91.63119696 89.58663262 104 102 C99.13721083 107.8587357 93.89921475 113.23644152 88.50634766 118.60717773 C87.55944681 119.55379596 86.61276719 120.50063551 85.66629028 121.44767761 C83.11524132 123.99901164 80.56113695 126.5472664 78.0064435 129.09495044 C75.33007869 131.76503319 72.65657504 134.43797774 69.98275757 137.11061096 C64.92756335 142.16270611 59.86982708 147.21224829 54.81115663 152.26086241 C49.04856058 158.01225297 43.28882838 163.76650792 37.52932668 169.52099693 C25.6893858 181.35050567 13.84588062 193.17643916 2 205 C-10.03353588 193.67925196 -15.35597148 168.61277737 -19 153 C-19.17660156 152.24686523 -19.35320312 151.49373047 -19.53515625 150.71777344 C-20.10101357 148.27330937 -20.64787902 145.82538202 -21.1875 143.375 C-21.35467529 142.63572266 -21.52185059 141.89644531 -21.6940918 141.13476562 C-31.35252499 95.55452449 -22.92732999 40.12403749 0 0 Z " fill="#FDB018" transform="translate(306,310)"/>
<path d="M0 0 C9.80563078 8.30523287 18.28902174 20.90152954 20.35546875 33.890625 C21.730593 51.89225158 19.15129057 68.78377532 7.52734375 83.140625 C8.93287577 86.29934558 10.61348601 88.50874773 13.00390625 90.99609375 C13.67421875 91.70056641 14.34453125 92.40503906 15.03515625 93.13085938 C15.73382813 93.85595703 16.4325 94.58105469 17.15234375 95.328125 C18.54250386 96.77789964 19.93064469 98.2296142 21.31640625 99.68359375 C22.23993896 100.6430188 22.23993896 100.6430188 23.18212891 101.62182617 C24.52734375 103.140625 24.52734375 103.140625 24.52734375 104.140625 C21.36221097 104.65066354 18.19504091 105.14678457 15.02734375 105.640625 C14.14046875 105.78371094 13.25359375 105.92679688 12.33984375 106.07421875 C7.01539932 106.89637561 1.90656999 107.66499645 -3.47265625 107.140625 C-5.5390625 105.35546875 -5.5390625 105.35546875 -7.03515625 103.078125 C-8.69418474 100.88387835 -8.69418474 100.88387835 -10.47265625 99.140625 C-14.00869292 98.93662288 -16.46605519 99.81222432 -19.79248047 100.89746094 C-27.05723811 103.09659618 -33.78050164 103.6481861 -41.34765625 103.578125 C-42.49371338 103.57055176 -43.63977051 103.56297852 -44.82055664 103.55517578 C-53.04652649 103.39472047 -59.94686153 102.67246726 -67.47265625 99.140625 C-68.88804688 98.50447266 -68.88804688 98.50447266 -70.33203125 97.85546875 C-84.73370706 90.7143063 -95.32771758 78.42622322 -100.44921875 63.24609375 C-104.52783464 48.09422629 -103.93331424 31.62789383 -96.84765625 17.515625 C-93.46067942 11.69136955 -89.21319697 6.89797614 -84.47265625 2.140625 C-83.93125 1.57601562 -83.38984375 1.01140625 -82.83203125 0.4296875 C-60.77571428 -20.6240696 -22.7744874 -17.64450961 0 0 Z " fill="#242021" transform="translate(150.47265625,805.859375)"/>
<path d="M0 0 C10.23 0 20.46 0 31 0 C37.93 18.48 44.86 36.96 52 56 C59.0906811 37.36423558 66.09769295 18.70625244 73 0 C83.23 0 93.46 0 104 0 C106.39600864 12.21173273 108.6193351 24.43848694 110.65625 36.71484375 C110.77134918 37.40851673 110.88644836 38.10218971 111.0050354 38.81688309 C111.7196418 43.1290409 112.43077643 47.44176646 113.14068604 51.75469971 C114.08952568 57.51881594 115.04056913 63.28256592 115.9949646 69.04576492 C116.22653925 70.4444194 116.4578444 71.84311852 116.68887329 73.24186325 C118.30034253 82.98950681 119.98850565 92.71993541 121.85778809 102.42185974 C122.00977661 103.22696487 122.16176514 104.03207001 122.31835938 104.86157227 C122.4509314 105.54663345 122.58350342 106.23169464 122.72009277 106.93751526 C123 109 123 109 123 114 C112.77 114 102.54 114 92 114 C90.34632339 104.88992525 88.77877786 95.78511723 87.4296875 86.625 C87.30144592 85.75431885 87.17320435 84.8836377 87.04107666 83.98657227 C86.51537824 80.40201721 85.99329227 76.81695149 85.47412109 73.23144531 C85.08784503 70.5704324 84.69657929 67.91019074 84.3046875 65.25 C84.18801727 64.43354004 84.07134705 63.61708008 83.95114136 62.77587891 C83.69751143 59.07837587 83.69751143 59.07837587 82 56 C79.68838944 61.70662007 77.37721179 67.41341523 75.06640625 73.12036133 C74.28299171 75.05497785 73.49946627 76.98954947 72.71582031 78.92407227 C71.57847181 81.73181049 70.44154863 84.53972065 69.3046875 87.34765625 C68.74971588 88.7173204 68.74971588 88.7173204 68.18353271 90.11465454 C66.48975852 94.29902681 64.80306165 98.48578594 63.14160156 102.68310547 C62.8627713 103.38648544 62.58394104 104.08986542 62.29666138 104.81455994 C61.56149414 106.67289856 60.8296865 108.53256528 60.09814453 110.39233398 C59 113 59 113 58 114 C55.81360547 114.07258946 53.62499611 114.08373783 51.4375 114.0625 C49.64119141 114.04896484 49.64119141 114.04896484 47.80859375 114.03515625 C46.41833984 114.01775391 46.41833984 114.01775391 45 114 C42.33262313 108.11012094 39.82548074 102.18062788 37.46875 96.16015625 C36.99205872 94.94965858 36.99205872 94.94965858 36.5057373 93.71470642 C35.50197304 91.16469466 34.50089324 88.61363983 33.5 86.0625 C32.5004656 83.5201429 31.50037489 80.97800512 30.50024414 78.43588257 C29.86116831 76.8113233 29.22232838 75.1866712 28.58374023 73.56192017 C26.40988934 68.03293267 24.22018914 62.51057328 22 57 C20.34348383 58.65651617 20.49557692 60.76261404 20.16796875 63.03881836 C20.01110596 64.11340805 19.85424316 65.18799774 19.69262695 66.29515076 C19.52593506 67.46489944 19.35924316 68.63464813 19.1875 69.83984375 C18.92682739 71.62848595 18.92682739 71.62848595 18.66088867 73.45326233 C18.10331424 77.28078112 17.55113214 81.10904861 17 84.9375 C16.44862802 88.76234346 15.89602874 92.58698584 15.33911133 96.411026 C14.99188154 98.79550423 14.64789383 101.18045714 14.30737305 103.56590271 C14.15051025 104.64364456 13.99364746 105.72138641 13.83203125 106.83178711 C13.69514893 107.78363388 13.5582666 108.73548065 13.41723633 109.71617126 C13 112 13 112 12 114 C1.77 114 -8.46 114 -19 114 C-16.85584767 98.50917792 -14.39569924 83.09973903 -11.75 67.6875 C-11.35474726 65.37282866 -10.9596484 63.05813103 -10.56469727 60.7434082 C-7.10305626 40.48513602 -3.570304 20.23937604 0 0 Z " fill="#F0A81B" transform="translate(662,932)"/>
<path d="M0 0 C63.34070796 0 63.34070796 0 81.9609375 16.765625 C93.52464217 28.80024977 97.63565962 43.73610915 97.3125 59.97265625 C96.65961747 74.5128942 89.51532492 88.1032236 79 98 C55.27825551 117.57734653 32.65309806 111 0 111 C0 74.37 0 37.74 0 0 Z " fill="#242122" transform="translate(922,795)"/>
<path d="M0 0 C57.4 0 57.4 0 66 7 C72.71820527 13.71820527 74.29068264 20.67158645 74.4375 30.0625 C74.38473933 38.23569291 72.69235513 42.92302271 67.375 49 C65 51 65 51 63 51 C63 51.66 63 52.32 63 53 C63.969375 53.04125 64.93875 53.0825 65.9375 53.125 C71.65360667 53.96150342 76.63286495 57.27380514 80.390625 61.6015625 C83.36608522 66.2868021 84.303755 71.56425587 85 77 C85.09667969 77.7321875 85.19335938 78.464375 85.29296875 79.21875 C85.80277035 86.82443879 82.87379576 94.1078203 78.390625 100.1796875 C71.20156483 107.86340778 63.30935281 109.4226618 53 112 C35.51 112 18.02 112 0 112 C0 75.04 0 38.08 0 0 Z " fill="#252122" transform="translate(438,795)"/>
<path d="M0 0 C62.87665198 0 62.87665198 0 74 10 C80.52020836 17.93642566 82.36160634 24.72037346 82.375 34.8125 C82.39949219 35.77220703 82.42398438 36.73191406 82.44921875 37.72070312 C82.4833128 46.045333 80.14863014 52.28618043 74.625 58.62109375 C71.83810797 60.98593242 68.61236624 62.41381478 65.3046875 63.921875 C62.80853151 65.01939822 62.80853151 65.01939822 60 67 C61.01537693 68.31999 62.03075575 69.63997855 63.04614258 70.95996094 C63.94705281 72.1311608 64.84793069 73.30238555 65.7487793 74.47363281 C67.97631967 77.36970502 70.20436688 80.26538171 72.43359375 83.16015625 C74.04463376 85.2526565 75.65395159 87.34639877 77.26171875 89.44140625 C79.33758166 92.1446203 81.42718934 94.83686802 83.51953125 97.52734375 C84.72145126 99.08065404 85.92327509 100.63403876 87.125 102.1875 C87.70612549 102.9309668 88.28725098 103.67443359 88.88598633 104.44042969 C89.42118896 105.13426758 89.9563916 105.82810547 90.5078125 106.54296875 C90.98879395 107.16196045 91.46977539 107.78095215 91.96533203 108.41870117 C93 110 93 110 93 112 C61.86398602 114.51291747 61.86398602 114.51291747 54.49072266 110.70361328 C50.93737825 107.2591373 49.43679367 102.96023764 47.90039062 98.34033203 C46.29919898 94.17844941 43.69697916 90.66015121 41.1875 87 C37.71983494 81.709885 34.35298434 76.36477495 31 71 C30.67 84.53 30.34 98.06 30 112 C20.1 112 10.2 112 0 112 C0 75.04 0 38.08 0 0 Z " fill="#252122" transform="translate(540,795)"/>
<path d="M0 0 C10.56 0 21.12 0 32 0 C37.20737999 12.75276733 42.12416321 25.59506306 46.9375 38.5 C52.63258798 53.76700793 58.43103032 68.99130095 64.3125 84.1875 C64.68470673 85.14946289 65.05691345 86.11142578 65.44039917 87.10253906 C67.10842378 91.41182238 68.77789826 95.72054368 70.45043945 100.02807617 C70.71901764 100.72218597 70.98759583 101.41629578 71.26431274 102.13143921 C71.88841998 103.7165996 72.54645079 105.28833783 73.21166992 106.85668945 C74 109 74 109 74 112 C63.77 112 53.54 112 43 112 C42.01 109.07125 41.02 106.1425 40 103.125 C39.68675781 102.20348145 39.37351562 101.28196289 39.05078125 100.33251953 C38.80714844 99.60661621 38.56351563 98.88071289 38.3125 98.1328125 C38.06113281 97.38918457 37.80976562 96.64555664 37.55078125 95.87939453 C37 94 37 94 37 92 C23.14 92 9.28 92 -5 92 C-5.66 94.97 -6.32 97.94 -7 101 C-8.32 104.63 -9.64 108.26 -11 112 C-21.23 112 -31.46 112 -42 112 C-40.2002413 106.00080435 -38.54389696 100.57449458 -36.1875 94.875 C-35.65230962 93.56174167 -35.11849591 92.24792161 -34.5859375 90.93359375 C-34.1852002 89.94528564 -34.1852002 89.94528564 -33.77636719 88.93701172 C-30.57574499 80.95155998 -27.66545459 72.84653188 -24.73828125 64.7578125 C-16.85583352 43.02810781 -8.4617219 21.50997312 0 0 Z " fill="#252122" transform="translate(677,795)"/>
<path d="M0 0 C2.48340903 -0.26727014 4.71472068 -0.34866334 7.1953125 -0.29296875 C8.25647781 -0.28660149 8.25647781 -0.28660149 9.33908081 -0.28010559 C11.60143905 -0.26329547 13.86291048 -0.22564128 16.125 -0.1875 C17.65753923 -0.17245607 19.1900924 -0.15876716 20.72265625 -0.14648438 C24.48211318 -0.11338462 28.24090618 -0.06158825 32 0 C32.25990723 0.72026367 32.51981445 1.44052734 32.78759766 2.18261719 C38.28478596 17.38030551 43.92430236 32.51177173 49.8125 47.5625 C54.83822053 60.41238744 59.80056431 73.28413779 64.6875 86.1875 C64.98572662 86.97295197 65.28395325 87.75840393 65.59121704 88.56765747 C66.4417387 90.80866906 67.28967494 93.05064064 68.13671875 95.29296875 C68.5061409 96.26576279 68.5061409 96.26576279 68.88302612 97.25820923 C70.72124703 102.14065669 72.3466118 107.03983541 74 112 C63.44 112 52.88 112 42 112 C40.68 107.38 39.36 102.76 38 98 C37.34 96.35 36.68 94.7 36 93 C22.47 93 8.94 93 -5 93 C-6.98 99.27 -8.96 105.54 -11 112 C-21.23 112 -31.46 112 -42 112 C-40.64571053 105.90569739 -39.26929816 100.57861847 -36.98828125 94.87890625 C-36.69696823 94.13527328 -36.40565521 93.39164032 -36.10551453 92.62547302 C-35.18068208 90.26866381 -34.24687089 87.91554158 -33.3125 85.5625 C-32.7057647 84.02172661 -32.09964109 82.4807122 -31.49414062 80.93945312 C-30.28127902 77.85419491 -29.06531768 74.77018561 -27.84716797 71.68701172 C-25.955721 66.89443203 -24.08229996 62.09494125 -22.21484375 57.29296875 C-21.93232254 56.56703018 -21.64980133 55.84109161 -21.35871887 55.09315491 C-17.79543102 45.9218382 -14.3441918 36.71103265 -10.9866333 27.46243286 C-9.9933589 24.72675156 -8.99746796 21.99202435 -8.00183105 19.25720215 C-7.25888397 17.21195653 -6.52051123 15.16509645 -5.78222656 13.11816406 C-5.31856475 11.84302426 -4.85470597 10.56795606 -4.390625 9.29296875 C-3.7723584 7.58403442 -3.7723584 7.58403442 -3.14160156 5.84057617 C-2 3 -2 3 0 0 Z " fill="#252122" transform="translate(221,795)"/>
<path d="M0 0 C1.54651245 0.00737183 1.54651245 0.00737183 3.12426758 0.01489258 C15.23292192 0.20141502 24.87868368 3.37975527 35.875 8.3125 C35.4085341 14.36663183 32.66973097 18.96823903 29.8125 24.1875 C29.34005859 25.06664062 28.86761719 25.94578125 28.38085938 26.8515625 C27.21981926 29.00945524 26.05107732 31.16277708 24.875 33.3125 C21.61424591 32.56770975 19.21280241 31.42711062 16.3125 29.75 C10.83172913 26.94475337 5.94765844 26.42632096 -0.125 27.3125 C-1.81191269 27.92613491 -3.48623913 28.57991211 -5.125 29.3125 C-5.125 32.2825 -5.125 35.2525 -5.125 38.3125 C0.20208886 41.18743685 5.41595596 43.5604887 11.15332031 45.45410156 C23.47661246 49.52214218 32.25620695 54.74048469 38.96875 66.17578125 C42.57560646 74.67987817 42.23485339 86.78949613 38.84765625 95.296875 C33.74646646 105.86801529 26.92081185 113.00850025 15.875 117.3125 C1.03358876 122.46539504 -17.81616263 120.34567349 -31.73681641 113.79321289 C-36.73291809 111.3636372 -40.14272387 109.29477613 -44.125 105.3125 C-39.835 97.3925 -35.545 89.4725 -31.125 81.3125 C-27.29527343 82.84439063 -24.9622755 83.99316751 -21.75 86.3125 C-14.61286728 91.1253691 -7.62421489 92.19127685 0.875 91.3125 C3.99437969 89.93997293 5.3647715 89.332957 6.875 86.3125 C7.37531206 82.89678147 7.37531206 82.89678147 6.875 79.3125 C3.55841451 76.1135186 0.28904653 74.47696166 -4.01953125 72.9453125 C-5.14037109 72.53410156 -6.26121094 72.12289062 -7.41601562 71.69921875 C-9.75080784 70.86268199 -12.08673712 70.02931158 -14.42382812 69.19921875 C-24.54725222 65.4747269 -32.36069442 61.35816757 -37.125 51.3125 C-40.79205462 42.09951118 -40.34613188 31.5693175 -37.0625 22.3125 C-32.34656572 11.65554237 -25.07046705 5.79235328 -14.51171875 1.16796875 C-9.66337027 -0.05670059 -4.98239237 -0.02771343 0 0 Z " fill="#F0A81B" transform="translate(427.125,929.6875)"/>
<path d="M0 0 C1.54651245 0.00737183 1.54651245 0.00737183 3.12426758 0.01489258 C10.41406698 0.12718509 16.99902459 0.74412095 23.875 3.3125 C25.53015625 3.92738281 25.53015625 3.92738281 27.21875 4.5546875 C35.66330058 7.88910116 35.66330058 7.88910116 36.875 10.3125 C35.88696289 12.74267578 35.88696289 12.74267578 34.34765625 15.7578125 C33.80302734 16.83417969 33.25839844 17.91054688 32.69726562 19.01953125 C31.82618164 20.71142578 31.82618164 20.71142578 30.9375 22.4375 C30.0722168 24.14099609 30.0722168 24.14099609 29.18945312 25.87890625 C27.7583541 28.69379523 26.31994135 31.5046983 24.875 34.3125 C22.76619017 33.2717743 20.71162774 32.21639867 18.68359375 31.0234375 C12.41445116 27.49123525 7.05766997 26.076896 -0.125 27.3125 C-3.39435144 28.68962361 -3.39435144 28.68962361 -5.125 31.3125 C-5.95833333 34.3125 -5.95833333 34.3125 -5.125 37.3125 C-0.94092523 41.58955421 4.01610694 42.92476438 9.5625 44.6875 C21.70382189 48.76662613 31.26759178 53.21086114 38.19140625 64.44921875 C42.654123 73.60789528 42.42302928 85.73853326 39.3125 95.3125 C35.04708221 105.08741576 28.49511463 111.68813605 18.875 116.3125 C12.01030807 118.9429949 5.75490502 119.77463743 -1.5625 119.625 C-2.48482422 119.61227051 -3.40714844 119.59954102 -4.35742188 119.58642578 C-19.1248105 119.27072719 -30.48777233 114.95361441 -43.125 107.3125 C-42.52845974 103.52254025 -41.42432513 100.60893674 -39.62109375 97.23046875 C-38.88149414 95.83344727 -38.88149414 95.83344727 -38.12695312 94.40820312 C-37.61068359 93.44849609 -37.09441406 92.48878906 -36.5625 91.5 C-36.04236328 90.52095703 -35.52222656 89.54191406 -34.98632812 88.53320312 C-33.70490832 86.1231934 -32.41765289 83.71649781 -31.125 81.3125 C-27.62487974 82.66131624 -24.79350535 84.11502321 -21.75 86.3125 C-14.61994178 91.12059847 -7.61844455 92.20378739 0.875 91.3125 C3.42378922 90.14005696 4.93797378 89.24952622 6.875 87.3125 C7.37875834 83.24601976 7.37875834 83.24601976 6.875 79.3125 C3.27649737 75.66619942 -0.80696849 74.11143071 -5.5625 72.5 C-30.41301196 63.52779602 -30.41301196 63.52779602 -37.26953125 51.265625 C-40.88503224 42.48276414 -40.44146433 31.6692791 -37.0625 22.9375 C-31.88867962 12.18520289 -25.43789091 5.940847 -14.51171875 1.171875 C-9.66347792 -0.05835912 -4.98346974 -0.02771942 0 0 Z " fill="#EFA81B" transform="translate(230.125,929.6875)"/>
<path d="M0 0 C1.43907715 0.01027222 1.43907715 0.01027222 2.90722656 0.02075195 C14.85837919 0.28889966 24.79340358 3.67893196 35.25 9.4375 C33.81358915 12.47968216 32.37567446 15.52115123 30.9375 18.5625 C30.53337891 19.4184375 30.12925781 20.274375 29.71289062 21.15625 C27.60646978 25.60884691 25.47589182 30.04334463 23.25 34.4375 C22.50234375 34.01597656 21.7546875 33.59445312 20.984375 33.16015625 C19.99953125 32.61230469 19.0146875 32.06445312 18 31.5 C16.53820312 30.68208984 16.53820312 30.68208984 15.046875 29.84765625 C9.68574863 27.14463025 4.19502524 26.58272254 -1.75 27.4375 C-5.04551437 29.74436006 -6.42162234 31.09115161 -7.375 35 C-6.45731397 38.57897552 -4.81464282 39.3800901 -1.75 41.4375 C1.4198909 42.75100077 4.66905633 43.77352853 7.9375 44.8125 C20.28262129 48.96672425 30.55444157 53.71477904 37.41015625 65.41796875 C40.86186465 73.71812338 40.65545925 85.88213777 38.125 94.4375 C33.55864611 105.4179882 26.40994264 111.92811073 15.62109375 116.578125 C9.00798911 118.97496688 3.34516484 119.75057841 -3.625 119.6875 C-4.47191406 119.69523437 -5.31882812 119.70296875 -6.19140625 119.7109375 C-18.58175617 119.6729885 -32.73599244 116.00852989 -42.75 108.4375 C-44.01293945 106.69238281 -44.01293945 106.69238281 -44.75 104.4375 C-43.87548828 101.87207031 -43.87548828 101.87207031 -42.3203125 99.015625 C-41.77246094 97.99082031 -41.22460938 96.96601562 -40.66015625 95.91015625 C-40.07105469 94.84667969 -39.48195313 93.78320312 -38.875 92.6875 C-38.00294922 91.06908203 -38.00294922 91.06908203 -37.11328125 89.41796875 C-35.67291819 86.74975521 -34.21818296 84.09047687 -32.75 81.4375 C-29.44723058 82.17030864 -27.65946504 83.1238628 -25.0625 85.3125 C-17.43528136 91.15582036 -9.26451241 92.62681405 0.25 91.4375 C3.63894779 90.27991028 3.63894779 90.27991028 5.25 87.4375 C5.63297958 84.38940222 5.54352731 81.49018403 5.25 78.4375 C-1.13331906 74.50257729 -7.77899541 72.08422783 -14.8359375 69.61328125 C-24.89919424 65.94194776 -33.26814043 61.09474738 -38.34765625 51.3828125 C-40.26220441 46.75497543 -40.32498583 42.2050896 -40.3125 37.25 C-40.3115332 36.32251953 -40.31056641 35.39503906 -40.30957031 34.43945312 C-40.04814304 24.19007147 -36.44221628 17.19843523 -29.75 9.4375 C-27.7421875 7.7421875 -27.7421875 7.7421875 -25.625 6.3125 C-24.94179688 5.83554687 -24.25859375 5.35859375 -23.5546875 4.8671875 C-15.95104826 0.99123769 -8.45439757 -0.0935221 0 0 Z " fill="#F0A81B" transform="translate(840.75,929.5625)"/>
<path d="M0 0 C22.11 0 44.22 0 67 0 C67 9.24 67 18.48 67 28 C55.78 28 44.56 28 33 28 C33 33.28 33 38.56 33 44 C43.56 44 54.12 44 65 44 C65 52.58 65 61.16 65 70 C54.44 70 43.88 70 33 70 C33 75.61 33 81.22 33 87 C44.22 87 55.44 87 67 87 C67 95.91 67 104.82 67 114 C44.89 114 22.78 114 0 114 C0 76.38 0 38.76 0 0 Z " fill="#FAAE18" transform="translate(563,932)"/>
<path d="M0 0 C20.79 0 41.58 0 63 0 C63 7.92 63 15.84 63 24 C51.78 24 40.56 24 29 24 C29 29.94 29 35.88 29 42 C39.56 42 50.12 42 61 42 C61 50.25 61 58.5 61 67 C50.44 67 39.88 67 29 67 C29 73.27 29 79.54 29 86 C40.22 86 51.44 86 63 86 C63 93.92 63 101.84 63 110 C42.21 110 21.42 110 0 110 C0 73.7 0 37.4 0 0 Z " fill="#242021" transform="translate(838,796)"/>
<path d="M0 0 C5.12236865 -0.29834584 10.23962193 -0.51507881 15.36865234 -0.65917969 C17.10945731 -0.71926314 18.84966307 -0.80097017 20.58837891 -0.90527344 C35.00159651 -1.74776524 35.00159651 -1.74776524 39.76611328 2.41918945 C41.83264266 5.52242201 43.43094062 8.6217191 45 12 C46.00544992 13.56764696 47.04149111 15.1164149 48.1171875 16.63671875 C48.57867187 17.31541016 49.04015625 17.99410156 49.515625 18.69335938 C49.96421875 19.35142578 50.4128125 20.00949219 50.875 20.6875 C51.34679687 21.38810547 51.81859375 22.08871094 52.3046875 22.81054688 C54.61791634 26.46889307 54.61791634 26.46889307 58 29 C58.28133789 28.29335205 58.56267578 27.5867041 58.85253906 26.85864258 C59.23120117 25.91529053 59.60986328 24.97193848 60 24 C60.36061523 23.08565186 60.72123047 22.17130371 61.09277344 21.22924805 C64.40897507 13.459697 68.38457825 4.38719052 76 0 C87.79883079 -3.71068299 101.9397873 -1.42013374 114 0 C112.63268161 2.88638168 111.07562791 5.45476921 109.234375 8.0625 C108.40450073 9.24259644 108.40450073 9.24259644 107.55786133 10.4465332 C106.96126709 11.28917725 106.36467285 12.13182129 105.75 13 C104.47772925 14.80589425 103.20559778 16.61188662 101.93359375 18.41796875 C101.28116699 19.34270996 100.62874023 20.26745117 99.95654297 21.22021484 C98.07913387 23.88756947 96.21129382 26.56129141 94.34765625 29.23828125 C93.75436523 30.08970703 93.16107422 30.94113281 92.54980469 31.81835938 C91.44385013 33.40610977 90.33891902 34.9945739 89.23535156 36.58398438 C88.71038086 37.33615234 88.18541016 38.08832031 87.64453125 38.86328125 C87.09853271 39.67418213 86.55253418 40.48508301 85.98999023 41.32055664 C84.44727587 43.39776069 82.9604243 45.10804298 81.16821289 46.94311523 C70.23004009 58.78985136 71.53191505 72.08408837 71.8125 87.4375 C71.81947011 90.01887154 71.82146455 92.60026155 71.81835938 95.18164062 C71.81231458 101.45814909 71.90832248 107.72115579 72 114 C61.77 114 51.54 114 41 114 C41.05542969 110.20371094 41.11085938 106.40742187 41.16796875 102.49609375 C41.18420188 98.77239949 41.18148126 95.04915982 41.17700195 91.32543945 C41.18392849 88.76020576 41.21020786 86.19494174 41.25708008 83.63012695 C41.69273284 63.52703535 41.69273284 63.52703535 31.74682617 46.83129883 C30.84037354 45.89697021 29.9339209 44.9626416 29 44 C27.94285605 42.57135097 26.91426825 41.1201359 25.94140625 39.6328125 C25.34235474 38.75314819 25.34235474 38.75314819 24.73120117 37.85571289 C24.34552979 37.28457764 23.9598584 36.71344238 23.5625 36.125 C19.66017784 30.39678795 15.69644514 24.71658731 11.6875 19.0625 C0 2.53982072 0 2.53982072 0 0 Z " fill="#F0A81A" transform="translate(273,932)"/>
<path d="M0 0 C26.07 0 52.14 0 79 0 C79 9.24 79 18.48 79 28 C71.08 28 63.16 28 55 28 C55 56.38 55 84.76 55 114 C44.77 114 34.54 114 24 114 C24 85.29 24 56.58 24 27 C16.08 27 8.16 27 0 27 C0 18.09 0 9.18 0 0 Z " fill="#EFA81C" transform="translate(474,932)"/>
<path d="M0 0 C25.41 0 50.82 0 77 0 C77 8.25 77 16.5 77 25 C69.08 25 61.16 25 53 25 C53 53.71 53 82.42 53 112 C43.43 112 33.86 112 24 112 C24 83.29 24 54.58 24 25 C16.08 25 8.16 25 0 25 C0 16.75 0 8.5 0 0 Z " fill="#272324" transform="translate(748,795)"/>
<path d="M0 0 C9.9 0 19.8 0 30 0 C30 28.71 30 57.42 30 87 C41.22 87 52.44 87 64 87 C64 95.25 64 103.5 64 112 C42.88 112 21.76 112 0 112 C0 75.04 0 38.08 0 0 Z " fill="#2A2627" transform="translate(307,795)"/>
<path d="M0 0 C9.9 0 19.8 0 30 0 C30 36.96 30 73.92 30 112 C20.1 112 10.2 112 0 112 C0 75.04 0 38.08 0 0 Z " fill="#231F20" transform="translate(385,795)"/>
<path d="M0 0 C6.13831401 4.9205918 10.38623529 11.53904113 11.75 19.3125 C12.55499027 26.73350404 11.2329833 32.7024587 7.75 39.3125 C7.09 39.9725 6.43 40.6325 5.75 41.3125 C5.40638428 40.80066162 5.06276855 40.28882324 4.70874023 39.76147461 C1.98242134 36.35430966 0.0781815 34.47917457 -4.35888672 33.92236328 C-8.00519611 34.07324858 -11.5665149 34.42119012 -15.1875 34.875 C-16.44369141 35.00197266 -17.69988281 35.12894531 -18.99414062 35.25976562 C-22.08467465 35.57704478 -25.16713104 35.92877072 -28.25 36.3125 C-23.93686791 41.31858159 -19.5403464 46.08905808 -14.75390625 50.6484375 C-13.25 52.3125 -13.25 52.3125 -13.25 54.3125 C-18.57128176 56.97314088 -25.38414393 55.54804483 -30.8125 53.8125 C-40.11557924 50.02819658 -46.08429721 43.69866548 -50.21484375 34.59765625 C-52.50966602 27.31484292 -52.50344432 19.58188276 -49.6875 12.4375 C-44.99930578 3.5875053 -38.18367889 -2.33641969 -28.9375 -6 C-17.93906772 -8.05055517 -9.25949739 -6.30770316 0 0 Z " fill="#FBFBFB" transform="translate(129.25,826.6875)"/>
<path d="M0 0 C20.05660377 0 20.05660377 0 29.15625 7.86328125 C35.54228954 14.6146239 38.21071776 21.16180497 38.5 30.4375 C38.20219236 40.04419791 35.66869854 47.18677039 29.0703125 54.2421875 C20.0281196 61.9195211 11.83563903 62 0 62 C0 41.54 0 21.08 0 0 Z " fill="#FDFDFD" transform="translate(951,820)"/>
<path d="M0 0 C22.11 0 44.22 0 67 0 C67 9.24 67 18.48 67 28 C55.78 28 44.56 28 33 28 C33 33.28 33 38.56 33 44 C43.56 44 54.12 44 65 44 C65 52.58 65 61.16 65 70 C54.44 70 43.88 70 33 70 C33 75.61 33 81.22 33 87 C44.22 87 55.44 87 67 87 C67 95.91 67 104.82 67 114 C44.89 114 22.78 114 0 114 C0 76.38 0 38.76 0 0 Z M1 1 C1 37.96 1 74.92 1 113 C22.45 113 43.9 113 66 113 C66 104.75 66 96.5 66 88 C54.45 88 42.9 88 31 88 C31 81.73 31 75.46 31 69 C41.89 69 52.78 69 64 69 C64 61.08 64 53.16 64 45 C53.11 45 42.22 45 31 45 C31 38.73 31 32.46 31 26 C42.55 26 54.1 26 66 26 C66 17.75 66 9.5 66 1 C44.55 1 23.1 1 1 1 Z " fill="#6A5F50" transform="translate(563,932)"/>
<path d="M0 0 C2.84625 -0.0825 5.6925 -0.165 8.625 -0.25 C9.51010254 -0.28641602 10.39520508 -0.32283203 11.30712891 -0.36035156 C16.71375322 -0.43579849 19.70050326 0.4303561 24 4 C26.36240216 6.36240216 26.93235468 7.55547362 27.4375 10.875 C26.86893658 14.93616729 25.6841024 16.90295877 23 20 C17.67514828 22.83548354 13.52417891 23.39852737 7.5625 23.1875 C5.066875 23.125625 2.57125 23.06375 0 23 C0 15.41 0 7.82 0 0 Z " fill="#FBFBFB" transform="translate(467,861)"/>
<path d="M0 0 C14.88888889 0 14.88888889 0 20 4 C23.44184042 7.80713009 23.46307259 10.63067556 23.2734375 15.59765625 C22.89722736 18.90293104 22.29739361 20.55901929 20 23 C13.50618578 27.93139276 8.57644002 27 0 27 C0 18.09 0 9.18 0 0 Z " fill="#FCFCFC" transform="translate(570,818)"/>
<path d="M0 0 C0.66 0 1.32 0 2 0 C3.71298017 4.80408933 5.42187189 9.60960538 7.12695312 14.41650391 C7.70785534 16.05232195 8.28988247 17.68774096 8.87304688 19.32275391 C9.70997852 21.66986324 10.54288427 24.01836718 11.375 26.3671875 C11.63748535 27.10057343 11.8999707 27.83395935 12.17041016 28.58956909 C14 33.77225659 14 33.77225659 14 36 C5.42 36 -3.16 36 -12 36 C-8.04 24.12 -4.08 12.24 0 0 Z " fill="#F7F7F7" transform="translate(692,829)"/>
<path d="M0 0 C2.79542801 3.2957533 4.08322955 6.55778953 5.48046875 10.62890625 C5.80704216 11.57527199 5.80704216 11.57527199 6.14021301 12.54075623 C6.59654348 13.86834797 7.04933802 15.19715981 7.4987793 16.52709961 C8.18742972 18.5622923 8.88870855 20.59280265 9.59179688 22.62304688 C13 32.57774228 13 32.57774228 13 36 C4.75 36 -3.5 36 -12 36 C-8.625 23.625 -8.625 23.625 -6.73828125 18.45703125 C-6.34189453 17.36455078 -5.94550781 16.27207031 -5.53710938 15.14648438 C-5.13298828 14.04626953 -4.72886719 12.94605469 -4.3125 11.8125 C-3.68891602 10.09836914 -3.68891602 10.09836914 -3.05273438 8.34960938 C-2.03907179 5.56495009 -1.02143976 2.78181383 0 0 Z " fill="#F8F8F8" transform="translate(236,829)"/>
<path d="M0 0 C10.2 0 10.2 0 13.4375 1.75 C14.07558594 2.07484375 14.71367187 2.3996875 15.37109375 2.734375 C17.38110295 4.29610877 18.08770129 5.63692382 19 8 C19.45071097 12.13151725 19.46635126 14.25050691 17.25 17.8125 C11.58029792 23.32471036 8.68609865 22 0 22 C0 14.74 0 7.48 0 0 Z " fill="#F8F8F8" transform="translate(467,817)"/>
<path d="M0 0 C22.11 0 44.22 0 67 0 C67 9.24 67 18.48 67 28 C55.78 28 44.56 28 33 28 C33 32.95 33 37.9 33 43 C32.34 43.66 31.68 44.32 31 45 C31 38.73 31 32.46 31 26 C42.55 26 54.1 26 66 26 C66 17.75 66 9.5 66 1 C44.22 1 22.44 1 0 1 C0 0.67 0 0.34 0 0 Z " fill="#9F9380" transform="translate(563,932)"/>
<path d="M0 0 C12.54 0 25.08 0 38 0 C37.34 1.32 36.68 2.64 36 4 C35.505 3.01 35.505 3.01 35 2 C30.2124632 2.09355263 25.42543106 2.19964984 20.63842773 2.31738281 C19.00992451 2.35566618 17.38133691 2.39052024 15.75268555 2.421875 C13.41163986 2.46754002 11.0711747 2.52553077 8.73046875 2.5859375 C7.63813179 2.60326431 7.63813179 2.60326431 6.52372742 2.62094116 C2.83038626 2.72878512 1.15173586 2.89884276 -2 5 C-1.34 3.35 -0.68 1.7 0 0 Z " fill="#A89065" transform="translate(349,932)"/>
<path d="M0 0 C12.21 0 24.42 0 37 0 C37 0.66 37 1.32 37 2 C25.78 2.33 14.56 2.66 3 3 C2.67 3.66 2.34 4.32 2 5 C1.34 3.35 0.68 1.7 0 0 Z " fill="#A88F63" transform="translate(273,932)"/>
<path d="M0 0 C0.66 0.33 1.32 0.66 2 1 C0.90344712 2.31886772 -0.20253423 3.62990057 -1.3125 4.9375 C-1.92738281 5.66839844 -2.54226563 6.39929688 -3.17578125 7.15234375 C-5 9 -5 9 -8 10 C-8.33 10.99 -8.66 11.98 -9 13 C-9.33 12.34 -9.66 11.68 -10 11 C-9.09066991 9.72390677 -8.17217147 8.45434447 -7.25 7.1875 C-6.73953125 6.47980469 -6.2290625 5.77210938 -5.703125 5.04296875 C-3.97517642 2.97022309 -2.21473524 1.52624146 0 0 Z " fill="#A57C30" transform="translate(815,936)"/>
<path d="M0 0 C3.65316671 1.24976756 4.78065836 1.67098753 7 5 C4.36 4.67 1.72 4.34 -1 4 C-1.66 5.65 -2.32 7.3 -3 9 C-3.33 8.34 -3.66 7.68 -4 7 C-3.22265625 5.2734375 -3.22265625 5.2734375 -2.0625 3.375 C-1.381875 2.26125 -0.70125 1.1475 0 0 Z " fill="#846735" transform="translate(396,1011)"/>
</svg>
